<svg xmlns="http://www.w3.org/2000/svg" viewBox="0 0 1200 650">
  <!-- Background -->
  <rect width="1200" height="650" fill="#f8f9fa"/>
  
  <!-- Title -->
  <text x="600" y="40" font-family="Arial, sans-serif" font-size="24" font-weight="bold" text-anchor="middle" fill="#333">My Professional Journey: From Environmental Science to Product Management</text>
  
  <!-- Main Timeline Line -->
  <path d="M 120 320 C 200 220, 300 420, 360 320 C 420 220, 540 420, 600 320 C 660 220, 780 420, 840 320 C 900 220, 1020 420, 1080 320" stroke="#3498db" stroke-width="4" fill="none"/>
  
  <!-- Timeline Nodes -->
  <!-- Node 1: Education -->
  <circle cx="120" cy="320" r="20" fill="#2ecc71"/>
  <text x="120" y="360" font-family="Arial, sans-serif" font-size="12" text-anchor="middle" fill="#333">2013-2015</text>
  
  <!-- Node Details Box 1 -->
  <rect x="30" y="160" width="200" height="130" rx="10" fill="white" stroke="#2ecc71" stroke-width="2"/>
  <text x="130" y="180" font-family="Arial, sans-serif" font-size="14" font-weight="bold" text-anchor="middle" fill="#333">Education Foundation</text>
  <text x="130" y="200" font-family="Arial, sans-serif" font-size="11" text-anchor="middle" fill="#333">Indiana University Bloomington</text>
  <text x="130" y="215" font-family="Arial, sans-serif" font-size="11" text-anchor="middle" fill="#333">South China University of Technology</text>
  <text x="40" y="235" font-family="Arial, sans-serif" font-size="11" fill="#555">• M.S. Environmental Science (2015)</text>
  <text x="40" y="255" font-family="Arial, sans-serif" font-size="11" fill="#555">• M.S. Chemistry (2015)</text>
  <text x="40" y="275" font-family="Arial, sans-serif" font-size="11" fill="#555">• B.S. Chemical Engineering (2013)</text>
  
  <line x1="120" y1="300" x2="130" y2="290" stroke="#2ecc71" stroke-width="2"/>
  
  <!-- Node 2: City of San Diego -->
  <circle cx="360" cy="320" r="20" fill="#e74c3c"/>
  <text x="360" y="360" font-family="Arial, sans-serif" font-size="12" text-anchor="middle" fill="#333">2016-2017</text>
  
  <!-- Node Details Box 2 -->
  <rect x="260" y="400" width="200" height="120" rx="10" fill="white" stroke="#e74c3c" stroke-width="2"/>
  <text x="360" y="420" font-family="Arial, sans-serif" font-size="14" font-weight="bold" text-anchor="middle" fill="#333">Technical Coordinator</text>
  <text x="360" y="440" font-family="Arial, sans-serif" font-size="12" text-anchor="middle" fill="#333">City of San Diego</text>
  <text x="270" y="460" font-family="Arial, sans-serif" font-size="11" fill="#555">• EHS software implementation</text>
  <text x="270" y="480" font-family="Arial, sans-serif" font-size="11" fill="#555">• 85% user adoption achievement</text>
  <text x="270" y="500" font-family="Arial, sans-serif" font-size="11" fill="#555">• Stakeholder consensus building</text>
  
  <line x1="360" y1="340" x2="360" y2="400" stroke="#e74c3c" stroke-width="2"/>
  
  <!-- Node 3: Locus Technologies -->
  <circle cx="600" cy="320" r="20" fill="#f39c12"/>
  <text x="600" y="360" font-family="Arial, sans-serif" font-size="12" text-anchor="middle" fill="#333">2017-2022</text>
  
  <!-- Node Details Box 3 -->
  <rect x="480" y="140" width="240" height="150" rx="10" fill="white" stroke="#f39c12" stroke-width="2"/>
  <text x="600" y="160" font-family="Arial, sans-serif" font-size="14" font-weight="bold" text-anchor="middle" fill="#333">Product Manager &amp; Engineer</text>
  <text x="600" y="180" font-family="Arial, sans-serif" font-size="12" text-anchor="middle" fill="#333">Locus Technologies</text>
  <text x="490" y="200" font-family="Arial, sans-serif" font-size="11" fill="#555">• 27% growth in contracts</text>
  <text x="490" y="220" font-family="Arial, sans-serif" font-size="11" fill="#555">• $1.2M in new revenue</text>
  <text x="490" y="240" font-family="Arial, sans-serif" font-size="11" fill="#555">• 30+ dashboards via SQL/AnyChart</text>
  <text x="490" y="260" font-family="Arial, sans-serif" font-size="11" fill="#555">• 91% CSAT score</text>
  <text x="490" y="280" font-family="Arial, sans-serif" font-size="11" fill="#555">• 100% customer renewal rate</text>
  
  <line x1="600" y1="300" x2="600" y2="290" stroke="#f39c12" stroke-width="2"/>
  
  <!-- Node 4: Certifications -->
  <circle cx="840" cy="320" r="20" fill="#9b59b6"/>
  <text x="840" y="360" font-family="Arial, sans-serif" font-size="12" text-anchor="middle" fill="#333">2020-2025</text>
  
  <!-- Node Details Box 4 -->
  <rect x="740" y="400" width="200" height="130" rx="10" fill="white" stroke="#9b59b6" stroke-width="2"/>
  <text x="840" y="420" font-family="Arial, sans-serif" font-size="14" font-weight="bold" text-anchor="middle" fill="#333">Professional Growth</text>
  <text x="840" y="440" font-family="Arial, sans-serif" font-size="12" text-anchor="middle" fill="#333">Key Certifications</text>
  <text x="750" y="460" font-family="Arial, sans-serif" font-size="11" fill="#555">• AI Product Management (2025)</text>
  <text x="750" y="480" font-family="Arial, sans-serif" font-size="11" fill="#555">• Front-End Web Dev (2021)</text>
  <text x="750" y="500" font-family="Arial, sans-serif" font-size="11" fill="#555">• Tableau Desktop Specialist (2020)</text>
  <text x="750" y="520" font-family="Arial, sans-serif" font-size="11" fill="#555">• P.E. Chemical Engineering (2020)</text>
  
  <line x1="840" y1="340" x2="840" y2="400" stroke="#9b59b6" stroke-width="2"/>
  
  <!-- Node 5: UL Solutions -->
  <circle cx="1080" cy="320" r="20" fill="#3498db"/>
  <text x="1080" y="360" font-family="Arial, sans-serif" font-size="12" text-anchor="middle" fill="#333">2022-Present</text>
  
  <!-- Node Details Box 5 -->
  <rect x="960" y="140" width="220" height="150" rx="10" fill="white" stroke="#3498db" stroke-width="2"/>
  <text x="1070" y="160" font-family="Arial, sans-serif" font-size="14" font-weight="bold" text-anchor="middle" fill="#333">Software Product Manager</text>
  <text x="1070" y="180" font-family="Arial, sans-serif" font-size="12" text-anchor="middle" fill="#333">UL Solutions</text>
  <text x="970" y="200" font-family="Arial, sans-serif" font-size="11" fill="#555">• 15% revenue growth</text>
  <text x="970" y="220" font-family="Arial, sans-serif" font-size="11" fill="#555">• 58+ customer interviews</text>
  <text x="970" y="240" font-family="Arial, sans-serif" font-size="11" fill="#555">• 41 weeks timeline reduction</text>
  <text x="970" y="260" font-family="Arial, sans-serif" font-size="11" fill="#555">• 18% increase in advocacy</text>
  <text x="970" y="280" font-family="Arial, sans-serif" font-size="11" fill="#555">• 30% improved dev efficiency</text>
  
  <line x1="1080" y1="300" x2="1070" y2="290" stroke="#3498db" stroke-width="2"/>
  
  <!-- Skill Evolution Arrows -->
  <path d="M 170 255 L 240 255 L 240 460 L 260 460" stroke="#777" stroke-width="1" stroke-dasharray="5,3" fill="none"/>
  <text x="220" y="230" font-family="Arial, sans-serif" font-size="10" fill="#777">Technical foundation</text>
  
  <path d="M 460 480 L 410 480 L 410 220 L 480 220" stroke="#777" stroke-width="1" stroke-dasharray="5,3" fill="none"/>
  <text x="410" y="510" font-family="Arial, sans-serif" font-size="10" fill="#777">Software implementation</text>
  
  <path d="M 720 220 L 770 220 L 770 460 L 740 460" stroke="#777" stroke-width="1" stroke-dasharray="5,3" fill="none"/>
  <text x="720" y="190" font-family="Arial, sans-serif" font-size="10" fill="#777">Technical PM skills</text>
  
  <path d="M 940 500 L 900 500 L 900 220 L 960 220" stroke="#777" stroke-width="1" stroke-dasharray="5,3" fill="none"/>
  <text x="900" y="530" font-family="Arial, sans-serif" font-size="10" fill="#777">Certifications applied</text>
  
  <!-- Key Inflection Points -->
  <path d="M 360 380 L 360 390 L 400 390" stroke="#e74c3c" stroke-width="2" stroke-dasharray="3,2" fill="none"/>
  <rect x="400" y="375" width="180" height="30" rx="5" fill="#e74c3c" opacity="0.8"/>
  <text x="490" y="395" font-family="Arial, sans-serif" font-size="12" font-weight="bold" text-anchor="middle" fill="white">TRANSITION TO PRODUCT</text>
  
  <path d="M 1080 380 L 1080 390 L 1030 390" stroke="#3498db" stroke-width="2" stroke-dasharray="3,2" fill="none"/>
  <rect x="850" y="375" width="180" height="30" rx="5" fill="#3498db" opacity="0.8"/>
  <text x="940" y="395" font-family="Arial, sans-serif" font-size="12" font-weight="bold" text-anchor="middle" fill="white">ENTERPRISE SAAS FOCUS</text>
  
  <!-- Environmental to Product Evolution -->
  <path d="M 240 120 L 1080 120" stroke="#2ecc71" stroke-width="2" stroke-dasharray="5,3" fill="none"/>
  <text x="660" y="105" font-family="Arial, sans-serif" font-size="12" font-weight="bold" text-anchor="middle" fill="#2ecc71">Environmental Expertise Applied to Sustainability Products</text>
  
  <!-- Parallel Activity - Toastmasters -->
  <path d="M 360 580 L 1080 580" stroke="#f39c12" stroke-width="2" fill="none"/>
  <text x="720" y="565" font-family="Arial, sans-serif" font-size="12" font-weight="bold" text-anchor="middle" fill="#f39c12">VP of Education - Toastmasters (2018-Present)</text>
  <rect x="360" y="575" width="720" height="10" rx="5" fill="#f39c12" opacity="0.6"/>
  
  <!-- Legend -->
  <rect x="50" y="545" width="280" height="70" rx="5" fill="white" stroke="#ddd" stroke-width="1"/>
  <text x="60" y="565" font-family="Arial, sans-serif" font-size="12" font-weight="bold" fill="#333">LEGEND:</text>
  
  <circle cx="75" cy="585" r="6" fill="#2ecc71"/>
  <text x="90" y="588" font-family="Arial, sans-serif" font-size="10" fill="#333">Education</text>
  
  <circle cx="180" cy="585" r="6" fill="#e74c3c"/>
  <text x="195" y="588" font-family="Arial, sans-serif" font-size="10" fill="#333">Early Career</text>
  
  <circle cx="75" cy="605" r="6" fill="#f39c12"/>
  <text x="90" y="608" font-family="Arial, sans-serif" font-size="10" fill="#333">Product Transition</text>
  
  <circle cx="180" cy="605" r="6" fill="#9b59b6"/>
  <text x="195" y="608" font-family="Arial, sans-serif" font-size="10" fill="#333">Professional Growth</text>
  
  <circle cx="280" cy="585" r="6" fill="#3498db"/>
  <text x="295" y="588" font-family="Arial, sans-serif" font-size="10" fill="#333">Current Role</text>
  
  <!-- Skills Acquisition Bar -->
  <rect x="360" y="600" width="780" height="45" rx="5" fill="white" stroke="#ddd" stroke-width="1"/>
  <text x="750" y="620" font-family="Arial, sans-serif" font-size="12" font-weight="bold" text-anchor="middle" fill="#333">SKILLS EVOLUTION</text>
  
  <!-- Technical Skills -->
  <text x="370" y="635" font-family="Arial, sans-serif" font-size="10" font-weight="bold" fill="#333">Technical:</text>
  <rect x="440" y="630" width="200" height="8" rx="4" fill="#eee"/>
  <rect x="440" y="630" width="48" height="8" rx="4" fill="#2ecc71"/>
  <rect x="440" y="630" width="96" height="8" rx="4" fill="#e74c3c"/>
  <rect x="440" y="630" width="150" height="8" rx="4" fill="#f39c12"/>
  <rect x="440" y="630" width="174" height="8" rx="4" fill="#9b59b6"/>
  <rect x="440" y="630" width="200" height="8" rx="4" fill="#3498db"/>
  
  <!-- Software Skills -->
  <text x="650" y="635" font-family="Arial, sans-serif" font-size="10" font-weight="bold" fill="#333">Software:</text>
  <rect x="720" y="630" width="200" height="8" rx="4" fill="#eee"/>
  <rect x="720" y="630" width="24" height="8" rx="4" fill="#2ecc71"/>
  <rect x="720" y="630" width="48" height="8" rx="4" fill="#e74c3c"/>
  <rect x="720" y="630" width="120" height="8" rx="4" fill="#f39c12"/>
  <rect x="720" y="630" width="168" height="8" rx="4" fill="#9b59b6"/>
  <rect x="720" y="630" width="200" height="8" rx="4" fill="#3498db"/>
  
  <!-- PM Skills -->
  <text x="930" y="635" font-family="Arial, sans-serif" font-size="10" font-weight="bold" fill="#333">PM:</text>
  <rect x="960" y="630" width="150" height="8" rx="4" fill="#eee"/>
  <rect x="960" y="630" width="0" height="8" rx="4" fill="#2ecc71"/>
  <rect x="960" y="630" width="36" height="8" rx="4" fill="#e74c3c"/>
  <rect x="960" y="630" width="90" height="8" rx="4" fill="#f39c12"/>
  <rect x="960" y="630" width="108" height="8" rx="4" fill="#9b59b6"/>
  <rect x="960" y="630" width="150" height="8" rx="4" fill="#3498db"/>
</svg>
