<svg xmlns="http://www.w3.org/2000/svg" viewBox="0 0 1000 650">
  <!-- Background -->
  <rect width="1000" height="650" fill="#f8f9fa"/>
  
  <!-- Title -->
  <text x="500" y="40" font-family="Arial, sans-serif" font-size="24" font-weight="bold" text-anchor="middle" fill="#333">My Professional Journey: From Environmental Science to Product Management</text>
  
  <!-- Main Timeline Line -->
  <path d="M 100 320 C 150 220, 250 420, 300 320 C 350 220, 450 420, 500 320 C 550 220, 650 420, 700 320 C 750 220, 850 420, 900 320" stroke="#3498db" stroke-width="4" fill="none"/>
  
  <!-- Timeline Nodes -->
  <!-- Node 1: Education -->
  <circle cx="100" cy="320" r="20" fill="#2ecc71"/>
  <text x="100" y="360" font-family="Arial, sans-serif" font-size="12" text-anchor="middle" fill="#333">2013-2015</text>
  
  <!-- Node Details Box 1 -->
  <rect x="20" y="160" width="180" height="130" rx="10" fill="white" stroke="#2ecc71" stroke-width="2"/>
  <text x="110" y="180" font-family="Arial, sans-serif" font-size="14" font-weight="bold" text-anchor="middle" fill="#333">Education Foundation</text>
  <text x="110" y="200" font-family="Arial, sans-serif" font-size="11" text-anchor="middle" fill="#333">Indiana University Bloomington</text>
  <text x="110" y="215" font-family="Arial, sans-serif" font-size="11" text-anchor="middle" fill="#333">South China University of Technology</text>
  <text x="30" y="235" font-family="Arial, sans-serif" font-size="11" fill="#555">• M.S. Environmental Science (2015)</text>
  <text x="30" y="255" font-family="Arial, sans-serif" font-size="11" fill="#555">• M.S. Chemistry (2015)</text>
  <text x="30" y="275" font-family="Arial, sans-serif" font-size="11" fill="#555">• B.S. Chemical Engineering (2013)</text>
  
  <line x1="100" y1="300" x2="110" y2="290" stroke="#2ecc71" stroke-width="2"/>
  
  <!-- Node 2: City of San Diego -->
  <circle cx="300" cy="320" r="20" fill="#e74c3c"/>
  <text x="300" y="360" font-family="Arial, sans-serif" font-size="12" text-anchor="middle" fill="#333">2016-2017</text>
  
  <!-- Node Details Box 2 -->
  <rect x="220" y="400" width="180" height="120" rx="10" fill="white" stroke="#e74c3c" stroke-width="2"/>
  <text x="310" y="420" font-family="Arial, sans-serif" font-size="14" font-weight="bold" text-anchor="middle" fill="#333">Technical Coordinator</text>
  <text x="310" y="440" font-family="Arial, sans-serif" font-size="12" text-anchor="middle" fill="#333">City of San Diego</text>
  <text x="230" y="460" font-family="Arial, sans-serif" font-size="11" fill="#555">• EHS software implementation</text>
  <text x="230" y="480" font-family="Arial, sans-serif" font-size="11" fill="#555">• 85% user adoption achievement</text>
  <text x="230" y="500" font-family="Arial, sans-serif" font-size="11" fill="#555">• Stakeholder consensus building</text>
  
  <line x1="300" y1="340" x2="300" y2="400" stroke="#e74c3c" stroke-width="2"/>
  
  <!-- Node 3: Locus Technologies -->
  <circle cx="500" cy="320" r="20" fill="#f39c12"/>
  <text x="500" y="360" font-family="Arial, sans-serif" font-size="12" text-anchor="middle" fill="#333">2017-2022</text>
  
  <!-- Node Details Box 3 -->
  <rect x="400" y="140" width="200" height="150" rx="10" fill="white" stroke="#f39c12" stroke-width="2"/>
  <text x="500" y="160" font-family="Arial, sans-serif" font-size="14" font-weight="bold" text-anchor="middle" fill="#333">Product Manager &amp; Engineer</text>
  <text x="500" y="180" font-family="Arial, sans-serif" font-size="12" text-anchor="middle" fill="#333">Locus Technologies</text>
  <text x="410" y="200" font-family="Arial, sans-serif" font-size="11" fill="#555">• 27% growth in contracts</text>
  <text x="410" y="220" font-family="Arial, sans-serif" font-size="11" fill="#555">• $1.2M in new revenue</text>
  <text x="410" y="240" font-family="Arial, sans-serif" font-size="11" fill="#555">• 30+ dashboards via SQL/AnyChart</text>
  <text x="410" y="260" font-family="Arial, sans-serif" font-size="11" fill="#555">• 91% CSAT score</text>
  <text x="410" y="280" font-family="Arial, sans-serif" font-size="11" fill="#555">• 100% customer renewal rate</text>
  
  <line x1="500" y1="300" x2="500" y2="290" stroke="#f39c12" stroke-width="2"/>
  
  <!-- Node 4: Certifications -->
  <circle cx="700" cy="320" r="20" fill="#9b59b6"/>
  <text x="700" y="360" font-family="Arial, sans-serif" font-size="12" text-anchor="middle" fill="#333">2020-2025</text>
  
  <!-- Node Details Box 4 -->
  <rect x="620" y="400" width="170" height="130" rx="10" fill="white" stroke="#9b59b6" stroke-width="2"/>
  <text x="705" y="420" font-family="Arial, sans-serif" font-size="14" font-weight="bold" text-anchor="middle" fill="#333">Professional Growth</text>
  <text x="705" y="440" font-family="Arial, sans-serif" font-size="12" text-anchor="middle" fill="#333">Key Certifications</text>
  <text x="630" y="460" font-family="Arial, sans-serif" font-size="11" fill="#555">• AI Product Management (2025)</text>
  <text x="630" y="480" font-family="Arial, sans-serif" font-size="11" fill="#555">• Front-End Web Dev (2021)</text>
  <text x="630" y="500" font-family="Arial, sans-serif" font-size="11" fill="#555">• Tableau Desktop Specialist (2020)</text>
  <text x="630" y="520" font-family="Arial, sans-serif" font-size="11" fill="#555">• P.E. Chemical Engineering (2020)</text>
  
  <line x1="700" y1="340" x2="700" y2="400" stroke="#9b59b6" stroke-width="2"/>
  
  <!-- Node 5: UL Solutions -->
  <circle cx="900" cy="320" r="20" fill="#3498db"/>
  <text x="900" y="360" font-family="Arial, sans-serif" font-size="12" text-anchor="middle" fill="#333">2022-Present</text>
  
  <!-- Node Details Box 5 -->
  <rect x="800" y="140" width="180" height="150" rx="10" fill="white" stroke="#3498db" stroke-width="2"/>
  <text x="890" y="160" font-family="Arial, sans-serif" font-size="14" font-weight="bold" text-anchor="middle" fill="#333">Software Product Manager</text>
  <text x="890" y="180" font-family="Arial, sans-serif" font-size="12" text-anchor="middle" fill="#333">UL Solutions</text>
  <text x="810" y="200" font-family="Arial, sans-serif" font-size="11" fill="#555">• 15% revenue growth</text>
  <text x="810" y="220" font-family="Arial, sans-serif" font-size="11" fill="#555">• 58+ customer interviews</text>
  <text x="810" y="240" font-family="Arial, sans-serif" font-size="11" fill="#555">• 41 weeks timeline reduction</text>
  <text x="810" y="260" font-family="Arial, sans-serif" font-size="11" fill="#555">• 18% increase in advocacy</text>
  <text x="810" y="280" font-family="Arial, sans-serif" font-size="11" fill="#555">• 30% improved dev efficiency</text>
  
  <line x1="900" y1="300" x2="890" y2="290" stroke="#3498db" stroke-width="2"/>
  
  <!-- Skill Evolution Arrows -->
  <path d="M 150 255 L 200 255 L 200 460 L 220 460" stroke="#777" stroke-width="1" stroke-dasharray="5,3" fill="none"/>
  <text x="220" y="230" font-family="Arial, sans-serif" font-size="10" fill="#777">Technical foundation</text>
  
  <path d="M 400 480 L 350 480 L 350 220 L 400 220" stroke="#777" stroke-width="1" stroke-dasharray="5,3" fill="none"/>
  <text x="410" y="510" font-family="Arial, sans-serif" font-size="10" fill="#777">Software implementation</text>
  
  <path d="M 600 220 L 650 220 L 650 460 L 620 460" stroke="#777" stroke-width="1" stroke-dasharray="5,3" fill="none"/>
  <text x="620" y="190" font-family="Arial, sans-serif" font-size="10" fill="#777">Technical PM skills</text>
  
  <path d="M 790 500 L 750 500 L 750 220 L 800 220" stroke="#777" stroke-width="1" stroke-dasharray="5,3" fill="none"/>
  <text x="800" y="530" font-family="Arial, sans-serif" font-size="10" fill="#777">Certifications applied</text>
  
  <!-- Key Inflection Points -->
  <path d="M 300 380 L 300 390 L 340 390" stroke="#e74c3c" stroke-width="2" stroke-dasharray="3,2" fill="none"/>
  <rect x="340" y="375" width="180" height="30" rx="5" fill="#e74c3c" opacity="0.8"/>
  <text x="430" y="395" font-family="Arial, sans-serif" font-size="12" font-weight="bold" text-anchor="middle" fill="white">TRANSITION TO PRODUCT</text>
  
  <path d="M 900 380 L 900 390 L 860 390" stroke="#3498db" stroke-width="2" stroke-dasharray="3,2" fill="none"/>
  <rect x="680" y="375" width="180" height="30" rx="5" fill="#3498db" opacity="0.8"/>
  <text x="770" y="395" font-family="Arial, sans-serif" font-size="12" font-weight="bold" text-anchor="middle" fill="white">ENTERPRISE SAAS FOCUS</text>
  
  <!-- Environmental to Product Evolution -->
  <path d="M 200 120 L 900 120" stroke="#2ecc71" stroke-width="2" stroke-dasharray="5,3" fill="none"/>
  <text x="550" y="105" font-family="Arial, sans-serif" font-size="12" font-weight="bold" text-anchor="middle" fill="#2ecc71">Environmental Expertise Applied to Sustainability Products</text>
  
  <!-- Parallel Activity - Toastmasters -->
  <path d="M 300 580 L 900 580" stroke="#f39c12" stroke-width="2" fill="none"/>
  <text x="600" y="565" font-family="Arial, sans-serif" font-size="12" font-weight="bold" text-anchor="middle" fill="#f39c12">VP of Education - Toastmasters (2018-Present)</text>
  <rect x="300" y="575" width="600" height="10" rx="5" fill="#f39c12" opacity="0.6"/>
  
  <!-- Legend -->
  <rect x="50" y="545" width="220" height="70" rx="5" fill="white" stroke="#ddd" stroke-width="1"/>
  <text x="60" y="565" font-family="Arial, sans-serif" font-size="12" font-weight="bold" fill="#333">LEGEND:</text>
  
  <circle cx="75" cy="585" r="6" fill="#2ecc71"/>
  <text x="90" y="588" font-family="Arial, sans-serif" font-size="10" fill="#333">Education</text>
  
  <circle cx="160" cy="585" r="6" fill="#e74c3c"/>
  <text x="175" y="588" font-family="Arial, sans-serif" font-size="10" fill="#333">Early Career</text>
  
  <circle cx="75" cy="605" r="6" fill="#f39c12"/>
  <text x="90" y="608" font-family="Arial, sans-serif" font-size="10" fill="#333">Product Transition</text>
  
  <circle cx="182" cy="605" r="6" fill="#9b59b6"/>
  <text x="192" y="608" font-family="Arial, sans-serif" font-size="10" fill="#333">Professional Growth</text>
  
  <circle cx="240" cy="585" r="6" fill="#3498db"/>
  <text x="255" y="588" font-family="Arial, sans-serif" font-size="10" fill="#333">Current Role</text>
  
  <!-- Skills Acquisition Bar -->
  <rect x="300" y="600" width="650" height="45" rx="5" fill="white" stroke="#ddd" stroke-width="1"/>
  <text x="625" y="620" font-family="Arial, sans-serif" font-size="12" font-weight="bold" text-anchor="middle" fill="#333">SKILLS EVOLUTION</text>
  
  <!-- Technical Skills -->
  <text x="310" y="635" font-family="Arial, sans-serif" font-size="10" font-weight="bold" fill="#333">Technical:</text>
  <rect x="370" y="630" width="170" height="8" rx="4" fill="#eee"/>
  <rect x="370" y="630" width="40" height="8" rx="4" fill="#2ecc71"/>
  <rect x="370" y="630" width="80" height="8" rx="4" fill="#e74c3c"/>
  <rect x="370" y="630" width="125" height="8" rx="4" fill="#f39c12"/>
  <rect x="370" y="630" width="145" height="8" rx="4" fill="#9b59b6"/>
  <rect x="370" y="630" width="170" height="8" rx="4" fill="#3498db"/>
  
  <!-- Software Skills -->
  <text x="550" y="635" font-family="Arial, sans-serif" font-size="10" font-weight="bold" fill="#333">Software:</text>
  <rect x="610" y="630" width="170" height="8" rx="4" fill="#eee"/>
  <rect x="610" y="630" width="20" height="8" rx="4" fill="#2ecc71"/>
  <rect x="610" y="630" width="40" height="8" rx="4" fill="#e74c3c"/>
  <rect x="610" y="630" width="100" height="8" rx="4" fill="#f39c12"/>
  <rect x="610" y="630" width="140" height="8" rx="4" fill="#9b59b6"/>
  <rect x="610" y="630" width="170" height="8" rx="4" fill="#3498db"/>
  
  <!-- PM Skills -->
  <text x="790" y="635" font-family="Arial, sans-serif" font-size="10" font-weight="bold" fill="#333">PM:</text>
  <rect x="825" y="630" width="115" height="8" rx="4" fill="#eee"/>
  <rect x="825" y="630" width="0" height="8" rx="4" fill="#2ecc71"/>
  <rect x="825" y="630" width="30" height="8" rx="4" fill="#e74c3c"/>
  <rect x="825" y="630" width="75" height="8" rx="4" fill="#f39c12"/>
  <rect x="825" y="630" width="90" height="8" rx="4" fill="#9b59b6"/>
  <rect x="825" y="630" width="115" height="8" rx="4" fill="#3498db"/>
</svg>